<svg xmlns="http://www.w3.org/2000/svg" viewBox="0 0 80.21 80.21"><defs><style>.cls-1{fill:#3c5a99;}.cls-2{fill:#a2b1ce;}.cls-3{fill:#e8ecf3;}.cls-4{fill:#a7b5d1;}.cls-5{fill:#fff;fill-rule:evenodd;}</style></defs><title>Asset 2</title><g id="Layer_2" data-name="Layer 2"><g id="Design"><circle class="cls-1" cx="40.11" cy="40.11" r="40.11" transform="translate(-8.14 69.93) rotate(-76.72)"/><path class="cls-2" d="M39.29,42.38c0-.19,0-.38-.08-.57.08-1.18-.1-2.38.51-3.48l.56.49c1.26,1,.21,2.39.49,3.56H39.29Z"/><path class="cls-3" d="M41,39.43c-.26.66-.53,1.31-.79,2-.35-.69-2.26-1.38,0-2.07Z"/><path class="cls-4" d="M39.34,38.32h1l.48,1.53c-.54.36,0,.68,0,1l-.53.53a1,1,0,0,0-.51,1C38.81,41.14,39.52,39.68,39.34,38.32Z"/><path class="cls-5" d="M33.46,40.56V65.13a.64.64,0,0,0,.64.64h9.12a.64.64,0,0,0,.64-.64v-25h6.62a.62.62,0,0,0,.63-.58l.64-7.53a.64.64,0,0,0-.64-.69H43.86V26a2.27,2.27,0,0,1,2.27-2.26h5.09a.64.64,0,0,0,.64-.64V15.6a.63.63,0,0,0-.64-.64H42.61a9.15,9.15,0,0,0-9.15,9.15v7.25H28.9a.64.64,0,0,0-.64.64v7.52a.64.64,0,0,0,.64.64h4.56Z"/></g></g></svg>