<svg xmlns="http://www.w3.org/2000/svg" viewBox="0 0 80.21 80.21"><defs><style>.cls-1{fill:red;}.cls-2{fill:#fff;}</style></defs><title>Asset 5</title><g id="Layer_2" data-name="Layer 2"><g id="Design"><circle class="cls-1" cx="40.11" cy="40.11" r="40.11" transform="translate(-16.61 40.11) rotate(-45)"/><path class="cls-2" d="M65.49,33.68A10.89,10.89,0,0,0,54.6,22.8H26.37A10.88,10.88,0,0,0,15.49,33.68V46.91A10.89,10.89,0,0,0,26.37,57.8H54.6A10.9,10.9,0,0,0,65.49,46.91ZM47.67,41,36.41,47.14c-.48.26-.92-.09-.92-.65V33.82c0-.57.45-.92.94-.64l11.33,6.5A.73.73,0,0,1,47.67,41Z"/></g></g></svg>